<svg width="26" height="24" viewBox="0 0 26 24" fill="none" xmlns="http://www.w3.org/2000/svg">
<path d="M22.0531 0H3.95824C2.91041 -3.94603e-06 1.16333 1.06597 1.16333 1.06597C1.16333 1.06597 0.00299381 2.67485 0 3.64163V16.5282C0.00299381 17.495 1.16333 19.1039 1.16333 19.1039C1.16333 19.1039 2.91041 20.1698 3.95824 20.1698H9.94084L12.542 23.7697C12.595 23.8407 12.6659 23.8988 12.7487 23.9389C12.8314 23.979 12.9235 24 13.017 24C13.1104 24 13.2025 23.979 13.2852 23.9389C13.368 23.8988 13.4389 23.8407 13.492 23.7697L16.0931 20.1698H22.0531C23.0989 20.1671 24.1011 19.7825 24.8407 19.1002C25.5802 18.4178 25.997 17.4932 26 16.5282V3.64163C25.997 2.67666 24.8407 1.06965 24.8407 1.06965C24.8407 1.06965 23.0989 0.00275315 22.0531 0ZM8.48195 10.9562C8.25827 10.9562 8.03962 10.895 7.85364 10.7803C7.66766 10.6657 7.52271 10.5027 7.43711 10.3121C7.35151 10.1214 7.32912 9.91159 7.37275 9.70918C7.41639 9.50677 7.5241 9.32085 7.68226 9.17492C7.84043 9.02899 8.04194 8.92961 8.26132 8.88935C8.48069 8.84909 8.70809 8.86975 8.91474 8.94873C9.12139 9.0277 9.29801 9.16144 9.42228 9.33304C9.54655 9.50463 9.61287 9.70637 9.61287 9.91275C9.61287 10.1895 9.49372 10.4549 9.28163 10.6506C9.06954 10.8463 8.78189 10.9562 8.48195 10.9562ZM13.0057 10.9562C12.782 10.9562 12.5633 10.895 12.3773 10.7803C12.1914 10.6657 12.0464 10.5027 11.9608 10.3121C11.8752 10.1214 11.8528 9.91159 11.8965 9.70918C11.9401 9.50677 12.0478 9.32085 12.206 9.17492C12.3641 9.02899 12.5656 8.92961 12.785 8.88935C13.0044 8.84909 13.2318 8.86975 13.4384 8.94873C13.6451 9.0277 13.8217 9.16144 13.946 9.33304C14.0703 9.50463 14.1366 9.70637 14.1366 9.91275C14.1366 10.1895 14.0174 10.4549 13.8053 10.6506C13.5933 10.8463 13.3056 10.9562 13.0057 10.9562ZM17.5294 10.9562C17.3057 10.9562 17.087 10.895 16.9011 10.7803C16.7151 10.6657 16.5701 10.5027 16.4845 10.3121C16.3989 10.1214 16.3765 9.91159 16.4202 9.70918C16.4638 9.50677 16.5715 9.32085 16.7297 9.17492C16.8878 9.02899 17.0893 8.92961 17.3087 8.88935C17.5281 8.84909 17.7555 8.86975 17.9621 8.94873C18.1688 9.0277 18.3454 9.16144 18.4697 9.33304C18.594 9.50463 18.6603 9.70637 18.6603 9.91275C18.6603 10.1895 18.5411 10.4549 18.329 10.6506C18.117 10.8463 17.8293 10.9562 17.5294 10.9562Z" fill="#0C3C81"/>
</svg>
