<svg width="26" height="24" viewBox="0 0 26 24" fill="none" xmlns="http://www.w3.org/2000/svg">
<path d="M3.95801 0.75H22.0508L22.373 0.765625C23.012 0.825669 23.612 1.05776 24.0986 1.42578L24.332 1.62109C24.8515 2.10037 25.1631 2.71812 25.2344 3.36523L25.25 3.64355V16.5283C25.2474 17.1806 25.0006 17.819 24.542 18.335L24.332 18.5488C23.7364 19.0984 22.917 19.4176 22.0508 19.4199H15.71L15.4854 19.7305L13.0166 23.1455L10.5488 19.7305L10.3242 19.4199H3.95801L3.63574 19.4053C2.9954 19.3467 2.39356 19.1151 1.90527 18.7471L1.6709 18.5518C1.14993 18.0724 0.837259 17.4537 0.765625 16.8057L0.75 16.5254V3.64355C0.752125 2.98928 1.00013 2.34901 1.46094 1.83203L1.6709 1.61816C2.19397 1.13693 2.88875 0.832963 3.63574 0.764648L3.95801 0.75ZM9.18262 8.24805C8.88838 8.1356 8.57046 8.09638 8.25879 8.13184L8.12598 8.15137C7.81664 8.20814 7.52324 8.33877 7.27637 8.53516L7.17383 8.62402C6.94029 8.83952 6.76571 9.11221 6.67383 9.41797L6.63965 9.55078C6.57167 9.86609 6.59366 10.1914 6.70117 10.4922L6.75293 10.6191C6.88421 10.9116 7.09165 11.1593 7.34766 11.3438L7.45996 11.4189C7.76719 11.6083 8.12324 11.7061 8.48242 11.7061C8.96237 11.7059 9.43367 11.5308 9.79004 11.2021C10.1485 10.8714 10.3632 10.409 10.3633 9.91309C10.3633 9.59038 10.2718 9.27804 10.1055 9.00684L10.0293 8.89355C9.84234 8.63539 9.59185 8.43333 9.30664 8.30078L9.18262 8.24805ZM13.7061 8.24805C13.3699 8.11961 13.0028 8.08651 12.6494 8.15137C12.2959 8.21627 11.9636 8.37831 11.6973 8.62402C11.4305 8.87027 11.2406 9.19133 11.1631 9.55078C11.0854 9.91103 11.126 10.2841 11.2764 10.6191C11.4263 10.9532 11.6758 11.2293 11.9834 11.4189C12.2906 11.6084 12.6467 11.7061 13.0059 11.7061C13.4258 11.706 13.8393 11.5721 14.1748 11.3184L14.3135 11.2021C14.6719 10.8714 14.8866 10.409 14.8867 9.91309C14.8867 9.59033 14.7953 9.27807 14.6289 9.00684L14.5537 8.89355C14.3667 8.63532 14.1154 8.43333 13.8301 8.30078L13.7061 8.24805ZM18.2295 8.24805C17.9355 8.13576 17.618 8.09649 17.3066 8.13184L17.1738 8.15137C16.8203 8.21625 16.4871 8.37827 16.2207 8.62402C15.9873 8.83946 15.8135 9.1124 15.7217 9.41797L15.6865 9.55078C15.6185 9.86613 15.6415 10.1914 15.749 10.4922L15.8008 10.6191C15.9508 10.9532 16.2001 11.2293 16.5078 11.4189C16.815 11.6082 17.1703 11.706 17.5293 11.7061C17.9495 11.7061 18.3635 11.5723 18.6992 11.3184L18.8379 11.2021C19.1964 10.8714 19.4101 10.409 19.4102 9.91309C19.4102 9.59046 19.3196 9.278 19.1533 9.00684L19.0771 8.89355C18.8903 8.6355 18.6395 8.43333 18.3545 8.30078L18.2295 8.24805Z" stroke="#0C3C81" stroke-width="1.5"/>
</svg>
