<svg width="29" height="26" viewBox="0 0 29 26" fill="none" xmlns="http://www.w3.org/2000/svg">
<path d="M14.5 0.75C14.6318 0.75 14.7562 0.779665 14.8623 0.831055L14.9619 0.889648H14.9629L28.0098 9.98926L28.0107 9.99023C28.0968 10.0501 28.1577 10.121 28.1963 10.1934L28.2275 10.2656C28.2513 10.3366 28.2564 10.4101 28.2422 10.4824L28.2217 10.5537C28.185 10.6501 28.1096 10.7492 27.9902 10.8262C27.8699 10.9036 27.7166 10.9507 27.5527 10.9512H23.9053V19.5C23.9053 20.9968 23.2426 22.4519 22.0312 23.5381C20.8172 24.6265 19.1545 25.25 17.4062 25.25C17.2488 25.2499 17.1041 25.2076 16.9883 25.1387L16.8818 25.0605C16.7583 24.9496 16.7071 24.8178 16.707 24.7002V18.2002C16.7069 17.7001 16.5125 17.2324 16.1826 16.8711L16.0332 16.7227C15.616 16.3486 15.0654 16.1504 14.5068 16.1504C14.0182 16.1505 13.5359 16.3023 13.1436 16.5908L12.9814 16.7227C12.5616 17.0991 12.3077 17.6286 12.3076 18.2002V24.7002C12.3076 24.7886 12.2787 24.8851 12.2119 24.9746L12.1318 25.0605C12.0053 25.174 11.8178 25.25 11.6074 25.25C9.96846 25.2499 8.40511 24.7017 7.21582 23.7363L6.9834 23.5381C5.77206 22.4519 5.10938 20.9968 5.10938 19.5V10.9512H1.45508C1.33157 10.9519 1.21386 10.9263 1.11133 10.8809L1.01465 10.8291C0.923861 10.7716 0.858417 10.7013 0.81543 10.6289L0.779297 10.5566C0.751724 10.4853 0.743961 10.4113 0.754883 10.3389L0.771484 10.2666C0.795467 10.1943 0.841447 10.1202 0.911133 10.0537L0.989258 9.99023L0.990234 9.98926L14.0371 0.889648H14.0381C14.1616 0.803237 14.3243 0.750004 14.5 0.75Z" stroke="#0C3C81" stroke-width="1.5"/>
</svg>
