<svg width="29" height="26" viewBox="0 0 29 26" fill="none" xmlns="http://www.w3.org/2000/svg">
<path d="M28.4391 9.37422L15.3916 0.274895C15.1369 0.0967504 14.8231 0 14.5 0C14.177 0 13.8632 0.0967504 13.6084 0.274895L0.560933 9.37422C0.321482 9.54084 0.146294 9.77056 0.0599996 10.0311C-0.0262945 10.2916 -0.0193538 10.5698 0.079846 10.8266C0.179046 11.0834 0.365515 11.3059 0.613035 11.4627C0.860555 11.6196 1.15668 11.7029 1.45976 11.7011H4.35921V19.5005C4.35921 21.2243 5.1229 22.8774 6.48228 24.0963C7.84166 25.3152 9.68537 26 11.6078 26C11.9923 26 12.3611 25.863 12.6329 25.6193C12.9048 25.3755 13.0575 25.0449 13.0575 24.7001V18.2006C13.0575 17.8558 13.2103 17.5252 13.4822 17.2814C13.754 17.0376 14.1228 16.9007 14.5073 16.9007C14.8918 16.9007 15.2605 17.0376 15.5324 17.2814C15.8043 17.5252 15.957 17.8558 15.957 18.2006V24.7001C15.957 25.0449 16.1097 25.3755 16.3816 25.6193C16.6535 25.863 17.0222 26 17.4067 26C19.3292 26 21.1729 25.3152 22.5323 24.0963C23.8916 22.8774 24.6553 21.2243 24.6553 19.5005V11.7011H27.5548C27.8566 11.7002 28.1506 11.6149 28.3958 11.4571C28.641 11.2992 28.8251 11.0766 28.9225 10.8205C29.0199 10.5643 29.0256 10.2872 28.939 10.028C28.8523 9.7687 28.6776 9.54016 28.4391 9.37422Z" fill="#0C3C81"/>
</svg>
