<svg width="28" height="27" viewBox="0 0 28 27" fill="none" xmlns="http://www.w3.org/2000/svg">
<path d="M9.1 17.2131C11.8072 17.2131 14 15.1059 14 12.5043C14 9.90267 11.8072 7.79547 9.1 7.79547C6.39275 7.79547 4.2 9.90267 4.2 12.5043C4.2 15.1059 6.39275 17.2131 9.1 17.2131ZM24.5 14.8587C24.5 16.9028 22.7771 18.5585 20.65 18.5585C18.5229 18.5585 16.8 16.9028 16.8 14.8587C16.8 12.8145 18.5229 11.1589 20.65 11.1589C22.7771 11.1589 24.5 12.8145 24.5 14.8587ZM9.1 18.5585C11.0135 18.5585 14.1281 19.131 16.1708 20.2706C17.0051 21.0868 17.5 21.9767 17.5 22.8637V26.6308H0V22.8637C0 20.0007 6.06284 18.5585 9.1 18.5585ZM28 26.6308H18.9V22.8637C18.9 21.911 18.542 21.0341 17.9735 20.2514C19.0521 20.0199 20.114 19.9039 20.9249 19.9039C23.5348 19.9039 28 21.1058 28 23.4915V26.6308Z" fill="#0C3C81"/>
<g clip-path="url(#clip0_118_204)">
<path d="M20.8526 4.03263C20.8526 3.9524 20.8917 3.87543 20.9612 3.81854L22.062 2.92347L20.9612 2.0278C20.8935 1.97077 20.856 1.89439 20.8568 1.81511C20.8577 1.73582 20.8968 1.65998 20.9657 1.60391C21.0347 1.54785 21.128 1.51605 21.2255 1.51536C21.323 1.51467 21.4169 1.54515 21.487 1.60023L22.8511 2.70938C22.9208 2.76609 22.96 2.84299 22.96 2.92317C22.96 3.00335 22.9208 3.08025 22.8511 3.13696L21.487 4.24672C21.435 4.28891 21.3687 4.31761 21.2966 4.32921C21.2245 4.3408 21.1498 4.33476 21.082 4.31186C21.0141 4.28895 20.9561 4.2502 20.9152 4.2005C20.8744 4.15081 20.8526 4.09239 20.8526 4.03263Z" fill="#0C3C81"/>
<path d="M14.9412 2.92347C14.9412 2.84328 14.9804 2.76636 15.0501 2.70965C15.1199 2.65295 15.2144 2.62109 15.3131 2.62109L22.1652 2.62109C22.2639 2.62109 22.3584 2.65295 22.4282 2.70966C22.4979 2.76636 22.5371 2.84328 22.5371 2.92347C22.5371 3.00367 22.4979 3.08059 22.4282 3.13729C22.3584 3.194 22.2639 3.22586 22.1652 3.22586L15.3131 3.22586C15.2144 3.22586 15.1199 3.194 15.0501 3.13729C14.9804 3.08059 14.9412 3.00367 14.9412 2.92347ZM14.9412 6.7529C14.9412 6.67267 14.9802 6.5957 15.0498 6.53881L16.4146 5.42966C16.4847 5.37457 16.5786 5.34409 16.6761 5.34478C16.7736 5.34547 16.8669 5.37727 16.9359 5.43334C17.0048 5.4894 17.0439 5.56525 17.0448 5.64453C17.0456 5.72382 17.0081 5.8002 16.9404 5.85723L15.8396 6.75229L16.9404 7.64796C17.0081 7.705 17.0456 7.78138 17.0448 7.86066C17.0439 7.93995 17.0048 8.01579 16.9359 8.07186C16.8669 8.12792 16.7736 8.15972 16.6761 8.16041C16.5786 8.1611 16.4847 8.13062 16.4146 8.07554L15.0505 6.96638C15.0159 6.93841 14.9884 6.90515 14.9697 6.86851C14.9509 6.83188 14.9412 6.79259 14.9412 6.7529Z" fill="#0C3C81"/>
<path d="M15.364 6.7529C15.364 6.6727 15.4032 6.59579 15.473 6.53908C15.5427 6.48237 15.6373 6.45051 15.7359 6.45051L22.5881 6.45051C22.6867 6.45051 22.7813 6.48237 22.851 6.53908C22.9208 6.59579 22.96 6.6727 22.96 6.7529C22.96 6.8331 22.9208 6.91001 22.851 6.96672C22.7813 7.02343 22.6867 7.05529 22.5881 7.05529L15.7359 7.05529C15.6373 7.05529 15.5427 7.02343 15.473 6.96672C15.4032 6.91001 15.364 6.8331 15.364 6.7529Z" fill="#0C3C81"/>
</g>
<defs>
<clipPath id="clip0_118_204">
<rect width="9.67637" height="11.9" fill="white" transform="translate(24.9004) rotate(90)"/>
</clipPath>
</defs>
</svg>
