<svg width="28" height="27" viewBox="0 0 28 27" fill="none" xmlns="http://www.w3.org/2000/svg">
<path d="M20.9248 20.6539C22.1394 20.6539 23.8094 20.938 25.1533 21.4957C25.8249 21.7744 26.3714 22.1036 26.7383 22.4615C27.0976 22.8122 27.25 23.1527 27.25 23.4918V25.8804H19.6504V22.8638C19.6504 22.1213 19.4667 21.4304 19.167 20.7974C19.8217 20.7012 20.4299 20.6539 20.9248 20.6539ZM9.09961 19.3082C10.8933 19.3082 13.8075 19.8479 15.7129 20.8765C16.4269 21.5969 16.75 22.2791 16.75 22.8638V25.8804H0.75V22.8638C0.75 22.4399 0.968712 22.0022 1.48828 21.5484C2.01095 21.092 2.77241 20.6812 3.67676 20.3384C5.48482 19.6531 7.66947 19.3082 9.09961 19.3082ZM20.6504 11.9088C22.3915 11.909 23.75 13.257 23.75 14.8589C23.7499 16.4608 22.3914 17.808 20.6504 17.8082C18.9092 17.8082 17.5499 16.4609 17.5498 14.8589C17.5498 13.2569 18.9091 11.9088 20.6504 11.9088ZM9.09961 8.54547C11.4211 8.54547 13.25 10.3449 13.25 12.5045C13.2499 14.6639 11.421 16.4634 9.09961 16.4634C6.7784 16.4632 4.95029 14.6638 4.9502 12.5045C4.9502 10.345 6.77835 8.54567 9.09961 8.54547Z" stroke="#0C3C81" stroke-width="1.5"/>
<g clip-path="url(#clip0_114_440)">
<path d="M20.8526 4.03263C20.8526 3.95241 20.8917 3.87544 20.9612 3.81854L22.062 2.92348L20.9612 2.02781C20.8935 1.97078 20.856 1.89439 20.8568 1.81511C20.8577 1.73582 20.8968 1.65998 20.9657 1.60392C21.0347 1.54785 21.128 1.51605 21.2255 1.51536C21.323 1.51467 21.4169 1.54515 21.487 1.60023L22.8511 2.70939C22.9208 2.76609 22.96 2.84299 22.96 2.92318C22.96 3.00336 22.9208 3.08026 22.8511 3.13696L21.487 4.24672C21.435 4.28891 21.3687 4.31762 21.2966 4.32921C21.2245 4.3408 21.1498 4.33477 21.082 4.31186C21.0141 4.28895 20.9561 4.2502 20.9152 4.20051C20.8744 4.15081 20.8526 4.09239 20.8526 4.03263Z" fill="#0C3C81"/>
<path d="M14.9412 2.92348C14.9412 2.84328 14.9804 2.76637 15.0501 2.70966C15.1199 2.65295 15.2144 2.62109 15.3131 2.62109L22.1652 2.62109C22.2639 2.62109 22.3584 2.65295 22.4282 2.70966C22.4979 2.76637 22.5371 2.84328 22.5371 2.92348C22.5371 3.00368 22.4979 3.08059 22.4282 3.1373C22.3584 3.19401 22.2639 3.22587 22.1652 3.22587L15.3131 3.22587C15.2144 3.22587 15.1199 3.19401 15.0501 3.1373C14.9804 3.08059 14.9412 3.00368 14.9412 2.92348ZM14.9412 6.75291C14.9412 6.67268 14.9802 6.59571 15.0498 6.53882L16.4146 5.42966C16.4847 5.37458 16.5786 5.3441 16.6761 5.34479C16.7736 5.34548 16.8669 5.37728 16.9359 5.43334C17.0048 5.48941 17.0439 5.56525 17.0448 5.64454C17.0456 5.72382 17.0081 5.80021 16.9404 5.85724L15.8396 6.7523L16.9404 7.64797C17.0081 7.705 17.0456 7.78138 17.0448 7.86067C17.0439 7.93995 17.0048 8.0158 16.9359 8.07186C16.8669 8.12793 16.7736 8.15973 16.6761 8.16042C16.5786 8.16111 16.4847 8.13063 16.4146 8.07554L15.0505 6.96639C15.0159 6.93842 14.9884 6.90516 14.9697 6.86852C14.9509 6.83188 14.9412 6.79259 14.9412 6.75291Z" fill="#0C3C81"/>
<path d="M15.364 6.7529C15.364 6.6727 15.4032 6.59579 15.473 6.53908C15.5427 6.48237 15.6373 6.45052 15.7359 6.45052L22.5881 6.45052C22.6867 6.45052 22.7813 6.48237 22.851 6.53908C22.9208 6.59579 22.96 6.6727 22.96 6.7529C22.96 6.8331 22.9208 6.91001 22.851 6.96672C22.7813 7.02343 22.6867 7.05529 22.5881 7.05529L15.7359 7.05529C15.6373 7.05529 15.5427 7.02343 15.473 6.96672C15.4032 6.91001 15.364 6.8331 15.364 6.7529Z" fill="#0C3C81"/>
</g>
<defs>
<clipPath id="clip0_114_440">
<rect width="9.67637" height="11.9" fill="white" transform="translate(24.9004) rotate(90)"/>
</clipPath>
</defs>
</svg>
